<svg xmlns="http://www.w3.org/2000/svg" viewBox="0 0 900 420" style="background:#FFFFFF">
  <defs>
    <marker id="arr" markerWidth="10" markerHeight="7" refX="10" refY="3.5" orient="auto">
      <path d="M0,0.5 L9,3.5 L0,6.5" fill="#1B1B1F" stroke="#1B1B1F" stroke-width="1"/>
    </marker>
  </defs>
  <text x="450" y="32" text-anchor="middle" font-family="Virgil, Segoe UI, sans-serif" font-size="20" fill="#1B1B1F" font-weight="bold">Queue-Based Write Leveling</text>
  <text x="450" y="55" text-anchor="middle" font-family="Virgil, Segoe UI, sans-serif" font-size="14" fill="#1B1B1F">Smooth Bursty Traffic Into Steady Throughput</text>
  <rect x="80" y="70" width="740" height="200" rx="4" fill="#FAFAFA" stroke="#1B1B1F" stroke-width="1"/>
  <line x1="80" y1="270" x2="820" y2="270" stroke="#1B1B1F" stroke-width="1.5"/>
  <line x1="80" y1="70" x2="80" y2="270" stroke="#1B1B1F" stroke-width="1.5"/>
  <text x="40" y="170" text-anchor="middle" font-family="Virgil, Segoe UI, sans-serif" font-size="11" fill="#555">w/s</text>
  <text x="450" y="290" text-anchor="middle" font-family="Virgil, Segoe UI, sans-serif" font-size="11" fill="#555">Time</text>
  <polyline points="100,250 200,100 250,80 300,240 400,90 450,250 550,100 600,80 700,240 800,130" fill="none" stroke="#EF5350" stroke-width="2.5"/>
  <line x1="100" y1="180" x2="800" y2="180" stroke="#2E7D32" stroke-width="2.5" stroke-dasharray="8,4"/>
  <rect x="150" y="300" width="160" height="30" rx="4" fill="#FFEBEE" stroke="#1B1B1F" stroke-width="1.5"/>
  <text x="230.0" y="319.0" text-anchor="middle" font-family="Virgil, Segoe UI, sans-serif" font-size="11" fill="#1B1B1F">Incoming (bursty)</text>
  <rect x="400" y="300" width="180" height="30" rx="4" fill="#E8F5E9" stroke="#1B1B1F" stroke-width="1.5"/>
  <text x="490.0" y="319.0" text-anchor="middle" font-family="Virgil, Segoe UI, sans-serif" font-size="11" fill="#1B1B1F">DB writes (steady)</text>
  <rect x="660" y="300" width="150" height="30" rx="4" fill="#FFF3E0" stroke="#1B1B1F" stroke-width="1.5"/>
  <text x="735.0" y="319.0" text-anchor="middle" font-family="Virgil, Segoe UI, sans-serif" font-size="11" fill="#1B1B1F">Queue depth</text>
  <text x="830" y="183" text-anchor="start" font-family="Virgil, Segoe UI, sans-serif" font-size="10" fill="#2E7D32">DB capacity</text>
  <text x="450" y="365" text-anchor="middle" font-family="Virgil, Segoe UI, sans-serif" font-size="13" fill="#555" font-style="italic">Queue absorbs the difference between burst and drain rate</text>
  <text x="450" y="390" text-anchor="middle" font-family="Virgil, Segoe UI, sans-serif" font-size="12" fill="#B71C1C">Latency increases proportional to queue depth</text>

  <text x="878" y="412" text-anchor="end" font-family="Virgil, Segoe UI, sans-serif" font-size="11" fill="#1B1B1F" opacity="0.22">systemdesignlaws.xyz</text>
</svg>